<?xml version="1.0" encoding="UTF-8"?>
<svg xmlns="http://www.w3.org/2000/svg" xmlns:xlink="http://www.w3.org/1999/xlink" width="3750" height="3750" viewBox="0 0 3750 3750">
<rect x="-375" y="-375" width="4500" height="4500" fill="rgb(94.921875%, 94.921875%, 94.921875%)" fill-opacity="1"/>
<path fill-rule="nonzero" fill="rgb(0%, 0%, 0%)" fill-opacity="1" d="M 2175.839844 2186.148438 C 2175.839844 2186.148438 2150.53125 1684.230469 1564.25 1852.949219 L 1633.859375 1897.230469 L 1661.269531 1975.261719 C 1661.269531 1975.261719 1654.941406 1825.53125 1848.949219 1852.949219 C 2042.96875 1880.359375 2102.019531 2108.121094 1948.089844 2190.371094 C 1948.089844 2190.371094 2066.171875 2156.628906 2097.808594 2133.429688 Z M 2175.839844 2186.148438 "/>
<path fill-rule="nonzero" fill="rgb(0%, 0%, 0%)" fill-opacity="1" d="M 2620.820312 2162.960938 C 2620.820312 2162.960938 2612.378906 1918.320312 2871.769531 2023.769531 L 2847.929688 2059.910156 L 2843.488281 2113.589844 C 2843.488281 2113.589844 2833.039062 2021.140625 2736.128906 2024.121094 C 2639.191406 2027.121094 2620.851562 2162.960938 2620.851562 2162.960938 Z M 2620.820312 2162.960938 "/>
<path fill-rule="nonzero" fill="rgb(0%, 0%, 0%)" fill-opacity="1" d="M 2725.648438 2080.171875 C 2725.648438 2080.171875 2759.949219 2143.839844 2731.621094 2201.039062 C 2731.621094 2201.039062 2672.851562 2163.460938 2725.648438 2080.171875 Z M 2725.648438 2080.171875 "/>
<path fill-rule="nonzero" fill="rgb(0%, 0%, 0%)" fill-opacity="1" d="M 1880.589844 1907.78125 C 1880.589844 1907.78125 1915.941406 1993.191406 1865.058594 2057.511719 C 1865.058594 2057.511719 1793.199219 1959.101562 1880.589844 1907.78125 Z M 1880.589844 1907.78125 "/>
<path fill-rule="nonzero" fill="rgb(0%, 0%, 0%)" fill-opacity="1" d="M 2797.96875 2614.261719 C 2797.96875 2614.261719 2750.570312 2593.171875 2750.570312 2643.78125 C 2750.570312 2694.398438 2644.019531 2804.058594 2644.019531 2804.058594 L 2613.148438 2692.289062 C 2613.148438 2692.289062 2671.429688 2597.390625 2635.570312 2588.949219 C 2599.730469 2580.519531 2538.558594 2603.71875 2538.558594 2603.71875 C 2538.558594 2603.71875 2511.148438 2542.558594 2477.410156 2542.558594 C 2443.671875 2542.558594 2401.480469 2555.210938 2401.480469 2555.210938 L 2544.890625 2677.53125 L 2627.140625 2842.023438 C 2627.140625 2842.023438 2778.988281 2702.839844 2797.96875 2614.261719 Z M 2797.96875 2614.261719 "/>
<path fill-rule="nonzero" fill="rgb(0%, 0%, 0%)" fill-opacity="1" d="M 2315.019531 2138.558594 C 2315.019531 2138.558594 2419.960938 1964.46875 2318.539062 1839.210938 L 2300.640625 1952.539062 C 2300.640625 1952.539062 2297.761719 1868.988281 2241 1810.859375 C 2184.230469 1752.71875 1829.628906 1675.179688 1829.628906 1675.179688 C 1829.628906 1675.179688 2308.511719 1975.640625 2315.019531 2138.558594 Z M 2315.019531 2138.558594 "/>
<path fill-rule="nonzero" fill="rgb(0%, 0%, 0%)" fill-opacity="1" d="M 2596.308594 2044.988281 C 2596.308594 2044.988281 2676.441406 1947.859375 2837.480469 1906.960938 C 2837.480469 1906.960938 2579.449219 1848.160156 2596.308594 2044.988281 Z M 2596.308594 2044.988281 "/>
<path fill-rule="nonzero" fill="rgb(0%, 0%, 0%)" fill-opacity="1" d="M 2785.308594 2504.601562 C 2785.308594 2504.601562 2637.679688 2453.980469 2519.578125 2504.601562 C 2519.578125 2504.601562 2637.679688 2405.480469 2785.308594 2504.601562 Z M 2785.308594 2504.601562 "/>
<path fill-rule="nonzero" fill="rgb(0%, 0%, 0%)" fill-opacity="1" d="M 2370.328125 2482.398438 L 2230.671875 2281.050781 L 2262.300781 2146.199219 L 2296.039062 2289.488281 L 2340.320312 2230.441406 C 2340.320312 2230.441406 2412.980469 2429.871094 2370.328125 2482.398438 Z M 2370.328125 2482.398438 "/>
<path fill-rule="nonzero" fill="rgb(0%, 0%, 0%)" fill-opacity="1" d="M 2773.710938 2444.488281 L 2696.121094 2304.25 C 2696.121094 2304.25 2796.859375 2354.070312 2773.710938 2444.488281 Z M 2773.710938 2444.488281 "/>
<path fill-rule="nonzero" fill="rgb(0%, 0%, 0%)" fill-opacity="1" d="M 2047.140625 2375.800781 C 2047.140625 2375.800781 1560.039062 2283.160156 1429.289062 2110.230469 L 1661.269531 2201.039062 C 1661.269531 2201.039062 1509.421875 1954.179688 1319.628906 1954.179688 C 1129.820312 1954.179688 906.285156 2057.71875 729.132812 2005.949219 C 729.132812 2005.949219 935.800781 2286.589844 1159.351562 2286.589844 C 1382.890625 2286.589844 1473.429688 2588.640625 2047.140625 2375.800781 Z M 2047.140625 2375.800781 "/>
<path fill-rule="nonzero" fill="rgb(0%, 0%, 0%)" fill-opacity="1" d="M 2173.890625 2504.601562 C 2173.890625 2504.601562 1530.511719 2580.5 1366.019531 2495.101562 C 1201.53125 2409.691406 1204.179688 2392.828125 956.886719 2409.691406 C 709.589844 2426.570312 564.632812 2319.769531 564.632812 2319.769531 C 564.632812 2319.769531 863 2653.160156 1070.769531 2726.03125 C 1329.128906 2816.648438 2002.578125 2682.769531 2173.890625 2504.601562 Z M 2173.890625 2504.601562 "/>
<path fill-rule="nonzero" fill="rgb(0%, 0%, 0%)" fill-opacity="1" d="M 2454.210938 1388.988281 C 2454.210938 1388.988281 2307.539062 1249.800781 2370.328125 1097.960938 C 2433.121094 946.121094 2918.179688 583.390625 2918.179688 583.390625 C 2918.179688 583.390625 2631.359375 933.46875 2631.359375 1051.570312 C 2631.359375 1169.671875 2589.179688 1338.371094 2454.210938 1388.988281 Z M 2454.210938 1388.988281 "/>
<path fill-rule="nonzero" fill="rgb(0%, 0%, 0%)" fill-opacity="1" d="M 1392.539062 1162.191406 C 1392.539062 1162.191406 1301.53125 565.710938 1188.199219 422.558594 C 1188.199219 422.558594 1289.609375 1033.941406 1056.980469 1215.878906 C 1056.980469 1215.878906 1140.480469 965.359375 991.367188 828.160156 C 842.238281 690.96875 752.773438 350.96875 913.828125 237.640625 C 913.828125 237.640625 412.769531 583.601562 573.824219 1520.089844 C 573.824219 1520.089844 645.40625 1645.351562 866.109375 1633.421875 C 1086.808594 1621.488281 1392.539062 1162.191406 1392.539062 1162.191406 Z M 1392.539062 1162.191406 "/>
<path fill-rule="nonzero" fill="rgb(0%, 0%, 0%)" fill-opacity="1" d="M 2475.910156 1891.070312 C 2478.039062 1893.898438 2544.929688 1828.191406 2542.789062 1641.851562 C 2541.578125 1535.929688 2078.199219 1183.75 2011.339844 1173.878906 C 2011.339844 1173.878906 2358.710938 1382.339844 2306.929688 1553.828125 C 2255.148438 1725.328125 1682.359375 1190.75 1682.359375 1190.75 C 1682.359375 1190.75 1861.128906 1674.191406 2011.339844 1641.851562 C 2178.671875 1605.828125 2486.320312 1865.960938 2475.910156 1891.070312 Z M 2475.910156 1891.070312 "/>
<path fill-rule="nonzero" fill="rgb(0%, 0%, 0%)" fill-opacity="1" d="M 1711.890625 1699 C 1711.890625 1699 1723.308594 1379.589844 1557.929688 1270.890625 C 1557.929688 1270.890625 1527.480469 1346.808594 1545.871094 1599.878906 C 1545.871094 1599.878906 1405.308594 1490.210938 1328.058594 1456.480469 C 1328.058594 1456.480469 1354.890625 1616.75 1450.371094 1692.679688 C 1450.371094 1692.679688 1225.261719 1608.230469 967.425781 1709.539062 C 967.425781 1709.539062 1239.519531 1949.960938 1711.890625 1699 Z M 1711.890625 1699 "/>
<path fill-rule="nonzero" fill="rgb(0%, 0%, 0%)" fill-opacity="1" d="M 2613.148438 1848.730469 C 2613.148438 1848.730469 2739.78125 1861.589844 2789.570312 1751.71875 C 2839.371094 1641.851562 2613.148438 1532.558594 2613.148438 1532.558594 C 2613.148438 1532.558594 2711.621094 1707.71875 2613.148438 1848.730469 Z M 2613.148438 1848.730469 "/>
<path fill-rule="nonzero" fill="rgb(0%, 0%, 0%)" fill-opacity="1" d="M 2652.128906 3085.863281 C 2652.128906 3085.863281 2565.46875 2965.855469 2596.308594 2903.9375 C 2596.308594 2903.9375 2584.609375 2951.683594 2445.78125 2998.082031 C 2306.929688 3044.476562 2385.878906 2966.449219 2385.878906 2966.449219 C 2385.878906 2966.449219 2160.769531 3059.238281 2075.511719 3065.566406 C 2075.511719 3065.566406 2192.710938 3107.742188 2272.839844 3082.433594 L 2249.648438 3120.398438 C 2249.648438 3120.398438 2501.910156 3099.304688 2549.109375 3031.820312 C 2549.109375 3031.820312 2599.078125 3095.621094 2652.128906 3085.863281 Z M 2652.128906 3085.863281 "/>
<path fill-rule="nonzero" fill="rgb(0%, 0%, 0%)" fill-opacity="1" d="M 2452.101562 2742.691406 C 2452.101562 2742.691406 2418.351562 2755.554688 2346.660156 2778.757812 L 2306.929688 2742.691406 C 2306.929688 2742.691406 2184.269531 2808.277344 2095.699219 2801.953125 L 2340.320312 2694.699219 C 2340.320312 2694.699219 2389.519531 2742.691406 2452.101562 2742.691406 Z M 2452.101562 2742.691406 "/>
<path fill-rule="nonzero" fill="rgb(0%, 0%, 0%)" fill-opacity="1" d="M 2514.679688 2810.027344 L 2436.359375 2900.535156 C 2436.359375 2900.535156 2558.699219 2925.34375 2514.679688 2810.027344 Z M 2514.679688 2810.027344 "/>
<path fill-rule="nonzero" fill="rgb(0%, 0%, 0%)" fill-opacity="1" d="M 2378.199219 2841.308594 L 2306.929688 2890.515625 L 2273.730469 2874.113281 L 2173.890625 2900.535156 L 2290.210938 2818.9375 L 2320.050781 2854.488281 Z M 2378.199219 2841.308594 "/>
<path fill-rule="nonzero" fill="rgb(0%, 0%, 0%)" fill-opacity="1" d="M 2123.109375 2858.285156 C 2123.109375 2858.285156 1564.25 3189.988281 1467.238281 3375.574219 C 1467.238281 3375.574219 1633.058594 3024.289062 2123.109375 2858.285156 Z M 2123.109375 2858.285156 "/>
<path fill-rule="nonzero" fill="rgb(0%, 0%, 0%)" fill-opacity="1" d="M 2005.390625 2742.691406 C 2005.390625 2742.691406 1510.308594 2823.410156 1274.710938 3017.269531 C 1274.710938 3017.269531 1664.121094 2706.621094 2005.390625 2742.691406 Z M 2005.390625 2742.691406 "/>
<path fill-rule="nonzero" fill="rgb(0%, 0%, 0%)" fill-opacity="1" d="M 2092.640625 2988.9375 C 2092.640625 2988.9375 1829.441406 3205.164062 1772.769531 3512.355469 C 1772.769531 3512.355469 1670.601562 3167.84375 2092.640625 2988.9375 Z M 2092.640625 2988.9375 "/>
<path fill-rule="nonzero" fill="rgb(0%, 0%, 0%)" fill-opacity="1" d="M 2786.699219 2847.355469 C 2786.699219 2847.355469 3168.789062 3010.121094 3193.28125 3297.351562 C 3193.28125 3297.351562 2976.578125 2949.636719 2786.699219 2847.355469 Z M 2786.699219 2847.355469 "/>
<path fill-rule="nonzero" fill="rgb(0%, 0%, 0%)" fill-opacity="1" d="M 2801.390625 2734.371094 C 2801.390625 2734.371094 3207.96875 2696.839844 3303.5 2962.15625 C 3303.5 2962.15625 3149.730469 2763.933594 2801.390625 2734.371094 Z M 2801.390625 2734.371094 "/>
<path fill-rule="nonzero" fill="rgb(0%, 0%, 0%)" fill-opacity="1" d="M 2786.699219 2890.265625 C 2786.699219 2890.265625 2977.070312 3269.59375 2810.660156 3449.710938 C 2810.660156 3449.710938 2918.230469 3192.023438 2786.699219 2890.265625 Z M 2786.699219 2890.265625 "/>
<path fill-rule="nonzero" fill="rgb(0%, 0%, 0%)" fill-opacity="1" d="M 2369.171875 3312.308594 C 2369.171875 3312.308594 2437.339844 3340.183594 2490.058594 3248.21875 C 2542.789062 3156.25 2531.890625 3115.082031 2531.890625 3115.082031 C 2531.890625 3115.082031 2474.921875 3192.097656 2422.039062 3206.859375 C 2422.039062 3206.859375 2436.621094 3171.378906 2439.441406 3129.265625 C 2439.441406 3129.265625 2298.160156 3257.476562 2169.519531 3293.328125 C 2169.519531 3293.328125 2283.488281 3337.617188 2369.171875 3312.308594 Z M 2369.171875 3312.308594 "/>
<path fill-rule="nonzero" fill="rgb(0%, 0%, 0%)" fill-opacity="1" d="M 2932.929688 2140.609375 C 2932.929688 2140.609375 2874.949219 2264.929688 2797.96875 2333.621094 C 2797.96875 2333.621094 2907.628906 2365.410156 2943.480469 2352.761719 C 2943.480469 2352.761719 2893.441406 2425.421875 2839.371094 2465.019531 C 2839.371094 2465.019531 2835.910156 2653.429688 2977.21875 2582.628906 C 2977.21875 2582.628906 3032.039062 2305.101562 2932.929688 2140.609375 Z M 2932.929688 2140.609375 "/>
<path fill-rule="nonzero" fill="rgb(0%, 0%, 0%)" fill-opacity="1" d="M 1317.710938 2858.285156 C 1130.191406 2887.339844 803.472656 2882.894531 558.84375 2495.101562 C 558.035156 2491 826.699219 3396.136719 1317.710938 2858.285156 Z M 1317.710938 2858.285156 "/>
<path fill-rule="nonzero" fill="rgb(0%, 0%, 0%)" fill-opacity="1" d="M 900.847656 3100.921875 C 941.414062 3151.871094 1298.5 3180.898438 1452.050781 3072.351562 C 1459.070312 3079.832031 1279.5 3535.503906 900.847656 3100.921875 Z M 900.847656 3100.921875 "/>
<path fill-rule="nonzero" fill="rgb(0%, 0%, 0%)" fill-opacity="1" d="M 2692.101562 2863.671875 C 2692.101562 2863.671875 2674.199219 2908.410156 2680.160156 2927.050781 C 2686.128906 2945.6875 2723.421875 2962.097656 2723.421875 2962.097656 Z M 2692.101562 2863.671875 "/>
<path fill-rule="nonzero" fill="rgb(0%, 0%, 0%)" fill-opacity="1" d="M 2806.730469 2824.90625 L 2761.441406 2775.691406 C 2761.441406 2775.691406 2715.679688 2839.777344 2806.730469 2824.90625 Z M 2806.730469 2824.90625 "/>
<path fill-rule="nonzero" fill="rgb(0%, 0%, 0%)" fill-opacity="1" d="M 2595.539062 1388.988281 C 2595.539062 1388.988281 2683.898438 1197.988281 2683.898438 1110 L 2812.140625 1032.460938 C 2812.140625 1032.460938 2816.578125 1148.769531 2722.671875 1203.949219 L 2846.441406 1162.199219 C 2846.441406 1162.199219 2780.820312 1248.691406 2722.671875 1275.53125 C 2664.511719 1302.371094 2595.539062 1388.988281 2595.539062 1388.988281 Z M 2595.539062 1388.988281 "/>
<path fill-rule="nonzero" fill="rgb(0%, 0%, 0%)" fill-opacity="1" d="M 564.632812 1683.980469 C 564.632812 1683.980469 800.765625 1874.71875 1025.269531 1843.078125 C 1025.269531 1843.078125 879.433594 1968.988281 657.355469 1891.160156 C 657.355469 1891.160156 519.207031 2022.679688 541.917969 2171.21875 C 541.917969 2171.21875 312.808594 1932.570312 564.632812 1683.980469 Z M 564.632812 1683.980469 "/>
<path fill-rule="nonzero" fill="rgb(0%, 0%, 0%)" fill-opacity="1" d="M 1081.621094 765.851562 C 1081.621094 765.851562 1050.058594 394.621094 967.230469 275.289062 C 967.230469 275.289062 1062.058594 325.660156 1128.019531 394.621094 C 1128.019531 394.621094 1144.308594 673.738281 1081.621094 765.851562 Z M 1081.621094 765.851562 "/>
<path fill-rule="nonzero" fill="rgb(0%, 0%, 0%)" fill-opacity="1" d="M 1787.621094 1173.878906 C 1787.621094 1173.878906 1890.378906 1154.328125 1921.859375 1173.878906 C 1921.859375 1173.878906 2132.730469 1315.558594 2177.078125 1448.648438 C 2177.078125 1448.648438 2011.359375 1301.828125 1787.621094 1173.878906 Z M 1787.621094 1173.878906 "/>
</svg>
